<?xml version="1.0" encoding="utf-8"?>
<!-- Generator: Adobe Illustrator 21.1.0, SVG Export Plug-In . SVG Version: 6.00 Build 0)  -->
<svg version="1.1" id="Layer_1" xmlns="http://www.w3.org/2000/svg" xmlns:xlink="http://www.w3.org/1999/xlink" x="0px" y="0px"
	 viewBox="0 0 512 512" style="enable-background:new 0 0 512 512;" xml:space="preserve">
<style type="text/css">
	.st0{fill:#F4DA40;stroke:#000000;stroke-miterlimit:10;}
</style>
<rect x="419" y="62" class="st0" width="67" height="378"/>
<path d="M512,86c0-27.6-22.4-50-50-50h-26c-9.3-21.2-30.4-36-55-36H100C66.9,0,40,26.9,40,60v37H0v40h40v100H0v40h40v100H0v40h40v35
	c0,33.1,26.9,60,60,60h281c26.1,0,48.3-16.7,56.6-40H462c27.6,0,50-22.4,50-50v-72c0-11.2-3.7-21.6-10-30c6.3-8.4,10-18.8,10-30v-72
	c0-11.2-3.7-21.6-10-30c6.3-8.4,10-18.8,10-30V86z M472,86v72c0,5.5-4.5,10-10,10h-21V76h21C467.5,76,472,80.5,472,86z M472,218v72
	c0,5.5-4.5,10-10,10h-21v-92h21C467.5,208,472,212.5,472,218z M401,452c0,11-9,20-20,20H100c-11,0-20-9-20-20v-35h9v0
	c0.3,0,0.7,0,1,0c11,0,20-9,20-20s-9-20-20-20c-0.3,0-0.7,0-1,0v0h-9V277h9v0c0.3,0,0.7,0,1,0c11,0,20-9,20-20c0-11-9-20-20-20
	c-0.3,0-0.7,0-1,0.1V237h-9V137h9v-0.1c0.3,0,0.7,0.1,1,0.1c11,0,20-9,20-20s-9-20-20-20c-0.3,0-0.7,0-1,0.1V97h-9V60
	c0-11,9-20,20-20h281c11,0,20,9,20,20V452z M472,422c0,5.5-4.5,10-10,10h-21v-92h21c5.5,0,10,4.5,10,10V422z M296.6,265.7l58.4,58.5
	L332.3,347c-6.5,6.5-14.2,10-23,10c-4.9,0-10.2-1.1-15.7-3.4c-24.2-10-44.7-16.2-83.6-55.1s-47.3-58.3-55.4-83.2
	c-4.7-14.4-3.6-28.5,6.6-38.7l22.8-22.6l56.9,57.2l-29.2,29.5c6.5,8.6,15.2,18.2,26.5,29.6c11.2,11.2,20.3,19,28.2,24.9L296.6,265.7
	z"/>
</svg>
