<?xml version="1.0" encoding="utf-8"?>
<!-- Generator: Adobe Illustrator 21.1.0, SVG Export Plug-In . SVG Version: 6.00 Build 0)  -->
<svg version="1.1" id="Layer_1" xmlns="http://www.w3.org/2000/svg" xmlns:xlink="http://www.w3.org/1999/xlink" x="0px" y="0px"
	 viewBox="0 0 25 25" style="enable-background:new 0 0 25 25;" xml:space="preserve">
<style type="text/css">
	.st0{fill:#F4DA40;}
	.st1{fill:#030104;}
</style>
<g>
	<circle class="st0" cx="12.5" cy="12.5" r="12.5"/>
</g>
<g>
	<path class="st1" d="M16.6,13.8c-0.6-0.5-1.3-0.9-1.9-0.3l-0.4,0.3c-0.3,0.2-0.8,1.3-2.7-0.9c-1.9-2.2-0.8-2.6-0.5-2.8l0.4-0.3
		c0.6-0.5,0.4-1.2-0.1-1.9l-0.3-0.4c-0.4-0.7-0.9-1.1-1.5-0.6L9.2,7.2C9,7.3,8.2,8,8,9.2c-0.2,1.5,0.5,3.2,2.1,5
		c1.6,1.9,3.2,2.8,4.7,2.8c1.2,0,2-0.7,2.2-0.9l0.3-0.3c0.6-0.5,0.2-1.1-0.4-1.6L16.6,13.8z"/>
</g>
</svg>
