<?xml version="1.0" encoding="utf-8"?>
<!-- Generator: Adobe Illustrator 21.1.0, SVG Export Plug-In . SVG Version: 6.00 Build 0)  -->
<svg version="1.1" id="Layer_1" xmlns="http://www.w3.org/2000/svg" xmlns:xlink="http://www.w3.org/1999/xlink" x="0px" y="0px"
	 viewBox="0 0 25 25" style="enable-background:new 0 0 25 25;" xml:space="preserve">
<style type="text/css">
	.st0{fill:#F4DA40;}
</style>
<g>
	<circle class="st0" cx="12.5" cy="12.5" r="12.5"/>
</g>
<path d="M8.7,13c-0.1,0.1-0.1,0.2-0.1,0.4c0,0.1,0.1,0.3,0.2,0.4l2.6,2.2c0.1,0.1,0.2,0.1,0.3,0.1c0,0,0,0,0,0
	c0.1,0,0.3-0.1,0.4-0.2l4.4-5.3c0.1-0.1,0.1-0.2,0.1-0.4c0-0.1-0.1-0.3-0.2-0.3l-0.8-0.7c-0.2-0.2-0.5-0.1-0.7,0.1l-3.4,4.1
	l-1.3-1.2c-0.2-0.2-0.5-0.2-0.7,0.1L8.7,13z"/>
</svg>
