<?xml version="1.0" encoding="utf-8"?>
<!-- Generator: Adobe Illustrator 21.1.0, SVG Export Plug-In . SVG Version: 6.00 Build 0)  -->
<svg version="1.1" id="Layer_1" xmlns="http://www.w3.org/2000/svg" xmlns:xlink="http://www.w3.org/1999/xlink" x="0px" y="0px"
	 viewBox="0 0 1654 392.7" style="enable-background:new 0 0 1654 392.7;" xml:space="preserve">
<style type="text/css">
	.st0{fill:#F4DA40;}
</style>
<g>
	<g>
		<path class="st0" d="M392.7,133.5v125.7c0,89.5-48.7,133.5-128.2,133.5H0V0h264.5C344,0,392.7,44,392.7,133.5z"/>
	</g>
	<polygon class="st0" points="691.8,276.8 691.8,254.3 807.7,254.3 807.7,138.4 691.8,138.4 691.8,115.9 807.7,115.9 807.7,0 415,0 
		415,392.7 807.7,392.7 807.7,276.8 	"/>
	<g>
		<polygon class="st0" points="1337.8,211.4 1356.1,211.4 1346.9,155.4 		"/>
		<path class="st0" d="M1098.6,158h-12.4v76.7h12.4c8.7,0,13.9-4.7,13.9-18.9v-38.7C1112.5,162.8,1107.2,158,1098.6,158z"/>
		<path class="st0" d="M1529.6,156.1c-8.5,0-13.9,5-13.9,20.1v40.3c0,15.2,5.3,20.1,13.9,20.1c8.7,0,13.9-5,13.9-20.1v-40.3
			C1543.5,161.1,1538.2,156.1,1529.6,156.1z"/>
		<path class="st0" d="M1616,138.3l19.1,99.3v-99.3h19V0H958.4c-79.5,0-128.2,44-128.2,133.5v125.7c0,89.5,48.7,133.5,128.2,133.5
			H1654V254.5h-34.1l-19.2-100.7v100.7h-19.2V138.3H1616z M1050.5,158h-33.3v27.1h30.2V205h-30.2v29.8h33.3v19.8h-55.6V138.3h55.6
			V158z M1135,215.3c0,26.2-13.8,39.2-36.4,39.2h-34.9V138.3h34.9c22.6,0,36.4,13,36.4,39V215.3z M1221,218.1
			c0,25.7-13.5,38.4-35.6,38.4s-35.6-12.7-35.6-38.4v-79.8h22.5v80.1c0,13.6,5,18.3,13.2,18.3s13.2-4.7,13.2-18.3v-80.1h22.5V218.1z
			 M1303.5,183.8H1281v-7.8c0-15.2-5.3-20.1-13.9-20.1c-8.5,0-13.9,5-13.9,20.1v40.3c0,15.2,5.3,20.1,13.9,20.1s13.9-5,13.9-20.1
			V207h22.5v8.8c0,27-13.8,40.4-36.4,40.4s-36.4-13.5-36.4-40.4v-39.5c0-27,13.8-40.3,36.4-40.3s36.4,13.3,36.4,40.3V183.8z
			 M1363.2,254.5l-3.9-23.7h-24.8l-3.9,23.7H1309h-0.3l0.1-0.5l21-115.7h34.4l21.2,116.2L1363.2,254.5L1363.2,254.5z M1445.9,158
			h-20.8v96.5h-22.5V158h-20.9v-19.7h64.1V158z M1477.7,254.5h-22.5V138.3h22.5V254.5z M1566,216.1c0,27.1-13.8,40.4-36.4,40.4
			s-36.4-13.3-36.4-40.4v-39.5c0-27,13.8-40.3,36.4-40.3s36.4,13.3,36.4,40.3V216.1z"/>
	</g>
</g>
</svg>
