<?xml version="1.0" encoding="utf-8"?>
<!-- Generator: Adobe Illustrator 21.1.0, SVG Export Plug-In . SVG Version: 6.00 Build 0)  -->
<svg version="1.1" id="Layer_1" xmlns="http://www.w3.org/2000/svg" xmlns:xlink="http://www.w3.org/1999/xlink" x="0px" y="0px"
	 viewBox="0 0 512 512" style="enable-background:new 0 0 512 512;" xml:space="preserve">
<style type="text/css">
	.st0{fill:#FFFFFF;stroke:#000000;stroke-miterlimit:10;}
</style>
<circle class="st0" cx="384" cy="307.2" r="86.8"/>
<g id="Page-1">
	<g id="_x30_58---Degree-Certificate">
		<path id="Shape" d="M477.9,119.5H341.3V71.6l17.1-4.6v20.7v0.1c0,8.8,4.4,17,11.7,21.8c3.9,2.6,9.2,1.6,11.8-2.4
			c2.6-3.9,1.6-9.2-2.4-11.8c-2.5-1.7-4.1-4.5-4.1-7.6v-0.1v-26c6-3.4,9.3-10.2,8.4-17c-0.9-6.8-5.8-12.5-12.5-14.3l-111-29.8
			c-2.9-0.8-5.9-0.8-8.7,0l-111,29.8c-7.5,2-12.6,8.8-12.6,16.6s5.2,14.5,12.6,16.6l30,8.1v47.9H34.1C15.3,119.5,0,134.7,0,153.6
			v324.3C0,496.7,15.3,512,34.1,512h443.7c18.9,0,34.1-15.3,34.1-34.1V153.6C512,134.7,496.7,119.5,477.9,119.5z M255.9,17.1
			L367.1,47h-0.1L256.1,76.8l-111-29.9L255.9,17.1z M251.7,93.3c2.9,0.8,5.9,0.8,8.7,0l63.8-17.2v47.9c-19.8,14.4-43.8,21.8-68.3,21
			c-24.5,0.8-48.5-6.6-68.3-21V76.1L251.7,93.3z M494.9,477.9c0,9.4-7.6,17.1-17.1,17.1H34.1c-9.4,0-17.1-7.6-17.1-17.1V153.6
			c0-9.4,7.6-17.1,17.1-17.1H176c22.9,17.5,51.2,26.6,80,25.6c28.8,1,57.1-8.1,80-25.6h141.8c9.4,0,17.1,7.6,17.1,17.1V477.9z"/>
		<path id="Shape_1_" d="M384,213.3c-43.4,0-81.1,29.7-91.3,71.9c-10.1,42.2,9.9,85.8,48.6,105.5v70.1c0,6.9,4.1,13.2,10.5,15.8
			c6.4,2.6,13.8,1.2,18.6-3.7l13.5-13.6l13.5,13.6c3.2,3.2,7.5,5,12,5c2.3,0,4.5-0.4,6.6-1.3c6.4-2.6,10.5-8.9,10.6-15.8v-70.1
			c38.6-19.7,58.7-63.3,48.6-105.5C465.1,243,427.4,213.3,384,213.3L384,213.3z M409.6,460.8l-13.5-13.6c-6.7-6.7-17.5-6.7-24.2,0
			l-13.5,13.5v-63.4c16.7,4.8,34.5,4.8,51.2,0V460.8z M384,384c-42.4,0-76.8-34.4-76.8-76.8s34.4-76.8,76.8-76.8
			s76.8,34.4,76.8,76.8C460.8,349.6,426.4,384,384,384z"/>
		<path id="Shape_2_" d="M384,247.5c-33,0-59.7,26.7-59.7,59.7s26.7,59.7,59.7,59.7s59.7-26.7,59.7-59.7
			C443.7,274.2,417,247.5,384,247.5z M384,349.9c-23.6,0-42.7-19.1-42.7-42.7c0-23.6,19.1-42.7,42.7-42.7
			c23.6,0,42.7,19.1,42.7,42.7C426.6,330.8,407.6,349.8,384,349.9z"/>
		<path id="Shape_3_" d="M51.2,187.7h102.4c4.7,0,8.5-3.8,8.5-8.5s-3.8-8.5-8.5-8.5H51.2c-4.7,0-8.5,3.8-8.5,8.5
			S46.5,187.7,51.2,187.7z"/>
		<path id="Shape_4_" d="M418.1,187.7h42.7c4.7,0,8.5-3.8,8.5-8.5s-3.8-8.5-8.5-8.5h-42.7c-4.7,0-8.5,3.8-8.5,8.5
			S413.4,187.7,418.1,187.7z"/>
		<path id="Shape_5_" d="M136.5,443.7H51.2c-4.7,0-8.5,3.8-8.5,8.5s3.8,8.5,8.5,8.5h85.3c4.7,0,8.5-3.8,8.5-8.5
			S141.2,443.7,136.5,443.7z"/>
		<path id="Shape_6_" d="M51.2,256h153.6c4.7,0,8.5-3.8,8.5-8.5c0-4.7-3.8-8.5-8.5-8.5H51.2c-4.7,0-8.5,3.8-8.5,8.5
			C42.7,252.2,46.5,256,51.2,256z"/>
		<path id="Shape_7_" d="M247.5,307.2H51.2c-4.7,0-8.5,3.8-8.5,8.5c0,4.7,3.8,8.5,8.5,8.5h196.3c4.7,0,8.5-3.8,8.5-8.5
			C256,311,252.2,307.2,247.5,307.2z"/>
		<path id="Shape_8_" d="M204.8,375.5H51.2c-4.7,0-8.5,3.8-8.5,8.5s3.8,8.5,8.5,8.5h153.6c4.7,0,8.5-3.8,8.5-8.5
			S209.5,375.5,204.8,375.5z"/>
		<path id="Shape_9_" d="M51.2,290.1h34.1c4.7,0,8.5-3.8,8.5-8.5s-3.8-8.5-8.5-8.5H51.2c-4.7,0-8.5,3.8-8.5,8.5
			S46.5,290.1,51.2,290.1z"/>
		<path id="Shape_10_" d="M247.5,273.1h-128c-4.7,0-8.5,3.8-8.5,8.5s3.8,8.5,8.5,8.5h128c4.7,0,8.5-3.8,8.5-8.5
			S252.2,273.1,247.5,273.1z"/>
		<path id="Shape_11_" d="M247.5,238.9h-8.5c-4.7,0-8.5,3.8-8.5,8.5c0,4.7,3.8,8.5,8.5,8.5h8.5c4.7,0,8.5-3.8,8.5-8.5
			C256,242.8,252.2,238.9,247.5,238.9z"/>
		<path id="Shape_12_" d="M51.2,358.4h85.3c4.7,0,8.5-3.8,8.5-8.5c0-4.7-3.8-8.5-8.5-8.5H51.2c-4.7,0-8.5,3.8-8.5,8.5
			C42.7,354.6,46.5,358.4,51.2,358.4z"/>
		<path id="Shape_13_" d="M247.5,341.3h-76.8c-4.7,0-8.5,3.8-8.5,8.5c0,4.7,3.8,8.5,8.5,8.5h76.8c4.7,0,8.5-3.8,8.5-8.5
			C256,345.2,252.2,341.3,247.5,341.3z"/>
	</g>
</g>
</svg>
