<?xml version="1.0" encoding="utf-8"?>
<!-- Generator: Adobe Illustrator 21.1.0, SVG Export Plug-In . SVG Version: 6.00 Build 0)  -->
<svg version="1.1" xmlns="http://www.w3.org/2000/svg" xmlns:xlink="http://www.w3.org/1999/xlink" x="0px" y="0px"
	 viewBox="0 0 512 512" style="enable-background:new 0 0 512 512;" xml:space="preserve">
<style type="text/css">
	.st0{fill:#FFFFFF;stroke:#000000;stroke-miterlimit:10;}
</style>
<g id="Layer_2">
	<polygon class="st0" points="234.1,7.2 488.5,12.2 505.1,29.6 505.1,216.8 484.4,233.4 362.6,233.4 307.2,283.9 296.3,270.6 
		295.5,229.2 247.5,231.7 234.1,217.6 210.1,196.3 210.1,41.1 215.9,11.3 	"/>
</g>
<g id="Layer_1">
	<g id="Page-1">
		<g id="_x30_50---Language-Tutor">
			<path id="Shape" d="M486.4,0h-256c-14.1,0-25.6,11.5-25.6,25.6v157.7c-34.4-18-75.6-16.7-108.8,3.4s-53.4,56.1-53.3,94.9v111.8
				c-19.9,4.1-34.1,21.5-34.1,41.8c0,2.8,0.3,5.6,0.9,8.3C3.4,449.9,0,458.3,0,467.1v19.3C0,500.5,11.5,512,25.6,512h256
				c14.1,0,25.6-11.5,25.6-25.6v-19.3c0-8.8-3.4-17.2-9.4-23.6c0.6-2.7,0.9-5.5,0.9-8.3c0-20.3-14.3-37.7-34.1-41.8V281.6
				c0-14.6-2.9-29.2-8.5-42.7h34.1v34.1c-0.1,6.7,3.9,12.8,10,15.5c6.2,2.8,13.4,1.7,18.4-2.8l51.7-46.9h116.2
				c14.1,0,25.6-11.5,25.6-25.6V25.6C512,11.5,500.5,0,486.4,0L486.4,0z M153.6,187.7c51.8,0.1,93.8,42.1,93.9,93.9v33.5
				c-54.8-5.5-86.3-54.6-86.6-55.1c-1.6-2.5-4.3-4-7.2-4c-2.9,0-5.7,1.5-7.2,4c-0.3,0.5-31.6,49.6-86.6,55.1v-33.5
				C59.8,229.8,101.8,187.8,153.6,187.7z M119.5,419.6c9.3,8.9,21.3,14.4,34.1,15.6c12.8-1.5,24.8-7.1,34.1-16v14.5
				c-1.6,3.9-9.1,18.5-34.1,18.5s-32.6-14.7-34.1-18.5V419.6z M153.6,418.1c-20.4,0-65.5-48.8-66-85.4c0-1.5-0.1-3.7-0.1-6.1
				c26.1-9.3,49-25.8,66.1-47.6c17.3,22,40.5,38.6,66.9,47.9c-0.1,2.3-0.1,4.3-0.1,5.7C219.8,368.4,173.6,418.1,153.6,418.1
				L153.6,418.1z M43,411.1c0.7,4,4.1,7,8.2,7.1c4.7,0,8.5-3.8,8.5-8.5v-77.3c3.7-0.3,7.3-0.8,10.8-1.4v1.8
				c0.3,20.3,13.9,48,31.9,69.5v25L31,433.1c-1.8,0.2-3.6,0.5-5.3,1C26.2,423.6,33,414.5,43,411.1L43,411.1z M290.1,486.4
				c0,4.7-3.8,8.5-8.5,8.5h-256c-4.7,0-8.5-3.8-8.5-8.5v-19.3c0-8.8,6.7-16.2,15.4-17l73.1-6c5.1,9.4,18.1,25.2,48,25.2
				s42.9-15.8,48-25.1l73,5.9c8.8,0.8,15.6,8.1,15.5,17V486.4z M281.5,434.1c-1.8-0.5-3.6-0.8-5.4-1l-71.3-5.8v-24.6
				c17.9-20.4,32.3-47,32.6-70c0-0.5,0-1,0-1.6c3.3,0.6,6.6,1,10,1.3v77.3c0,4.7,3.8,8.5,8.5,8.5c4.1,0,7.6-3,8.2-7.1
				C274.2,414.5,281,423.6,281.5,434.1z M494.9,213.3c0,4.7-3.8,8.5-8.5,8.5H349.9c-3.9,0-7.4,2.7-8.3,6.5c-0.9,3.8,0.9,7.8,4.4,9.5
				l-38.8,35.2v-34.1h8.5c4.7,0,8.5-3.8,8.5-8.5c0-4.7-3.8-8.5-8.5-8.5h-68.8c-6.8-10.5-15.2-19.8-25.1-27.5V25.6
				c0-4.7,3.8-8.5,8.5-8.5h256c4.7,0,8.5,3.8,8.5,8.5V213.3z"/>
			<path id="Shape_1_" d="M255.6,122.2l6.6-19.8H284l6.6,19.8c1,2.9,3.4,5.1,6.4,5.7c3,0.6,6.1-0.4,8.1-2.7c2-2.3,2.7-5.5,1.7-8.4
				L281.2,40c-1.2-3.5-4.4-5.9-8.1-5.9s-7,2.4-8.1,5.9l-25.6,76.8c-1,2.9-0.3,6.1,1.7,8.4c2,2.3,5.1,3.3,8.1,2.7
				C252.2,127.2,254.6,125.1,255.6,122.2L255.6,122.2z M278.3,85.3h-10.5l5.2-15.7L278.3,85.3z"/>
			<path id="Shape_2_" d="M469.3,42.7h-25.6c0-4.7-3.8-8.5-8.5-8.5s-8.5,3.8-8.5,8.5h-25.6c-4.7,0-8.5,3.8-8.5,8.5s3.8,8.5,8.5,8.5
				h0.9c3,15.5,10.1,29.8,20.7,41.6c-5.3,4-10.9,7.6-16.9,10.5c-4.2,2.1-5.9,7.2-3.8,11.5c2.1,4.2,7.2,5.9,11.5,3.8
				c7.7-3.9,15-8.5,21.8-14c6.7,5.4,14,10.1,21.8,14c2.7,1.4,6,1.2,8.5-0.5c2.5-1.7,4-4.6,3.8-7.6c-0.2-3-2-5.8-4.7-7.1
				c-6-3-11.6-6.5-16.9-10.5c10.6-11.7,17.7-26.1,20.7-41.6h0.9c4.7,0,8.5-3.8,8.5-8.5S474,42.7,469.3,42.7z M435.2,89.7
				c-7.6-8.5-13.1-18.8-15.8-29.9H451C448.2,70.9,442.8,81.1,435.2,89.7z"/>
			<path id="Shape_3_" d="M364.4,53.7c-3.3-3.2-8.7-3.2-12,0.1c-3.3,3.3-3.3,8.6-0.1,12l2.5,2.5h-30.6c-4.7,0-8.5,3.8-8.5,8.5
				c0,4.7,3.8,8.5,8.5,8.5h30.6l-2.5,2.5c-2.2,2.1-3.1,5.3-2.3,8.3c0.8,3,3.1,5.3,6.1,6.1c3,0.8,6.2-0.1,8.3-2.3l17.1-17.1
				c3.3-3.3,3.3-8.7,0-12.1L364.4,53.7z"/>
			<path id="Shape_4_" d="M366.9,145.1H256c-4.7,0-8.5,3.8-8.5,8.5s3.8,8.5,8.5,8.5h110.9c4.7,0,8.5-3.8,8.5-8.5
				S371.6,145.1,366.9,145.1z"/>
			<path id="Shape_5_" d="M460.8,145.1h-59.7c-4.7,0-8.5,3.8-8.5,8.5s3.8,8.5,8.5,8.5h59.7c4.7,0,8.5-3.8,8.5-8.5
				S465.5,145.1,460.8,145.1z"/>
			<path id="Shape_6_" d="M332.8,179.2h-59.7c-4.7,0-8.5,3.8-8.5,8.5c0,4.7,3.8,8.5,8.5,8.5h59.7c4.7,0,8.5-3.8,8.5-8.5
				C341.3,183,337.5,179.2,332.8,179.2z"/>
		</g>
	</g>
</g>
</svg>
