<?xml version="1.0" encoding="utf-8"?>
<!-- Generator: Adobe Illustrator 21.1.0, SVG Export Plug-In . SVG Version: 6.00 Build 0)  -->
<svg version="1.1" xmlns="http://www.w3.org/2000/svg" xmlns:xlink="http://www.w3.org/1999/xlink" x="0px" y="0px"
	 viewBox="0 0 512 512" style="enable-background:new 0 0 512 512;" xml:space="preserve">
<style type="text/css">
	.st0{fill:#F4DA40;}
</style>
<g id="Layer_2">
	<path class="st0" d="M251,169c0,0-116-4-116,109c0,31,26,78.1,46,95.1s32.4,53.9,32.4,53.9l26.6,9h54c0,0,3.2-43.8,28-54
		s52-54.9,53-79.4S373,161,251,169z"/>
</g>
<g id="Layer_1">
	<g id="Page-1">
		<g id="_x30_48---Creative-Learning" transform="translate(0 -1)">
			<path id="Shape" d="M401.1,265.5c0,4.7,3.8,8.5,8.5,8.5h34.1c4.7,0,8.5-3.8,8.5-8.5s-3.8-8.5-8.5-8.5h-34.1
				C404.9,257,401.1,260.8,401.1,265.5z"/>
			<path id="Shape_1_" d="M59.7,265.5c0,4.7,3.8,8.5,8.5,8.5h34.1c4.7,0,8.5-3.8,8.5-8.5s-3.8-8.5-8.5-8.5H68.3
				C63.6,257,59.7,260.8,59.7,265.5z"/>
			<path id="Shape_2_" d="M114.6,297.7c-1.1-4.6-5.7-7.4-10.2-6.4L71,299.2c-4.2,1-7,5-6.5,9.3c0.5,4.3,4.2,7.6,8.5,7.6
				c0.7,0,1.3-0.1,2-0.2l33.3-7.8C112.8,306.9,115.6,302.3,114.6,297.7L114.6,297.7z"/>
			<path id="Shape_3_" d="M113.8,325.4L83,340.7c-4.1,2.2-5.7,7.2-3.6,11.3c2,4.1,7,5.9,11.2,4l30.8-15.3c4.1-2.2,5.7-7.2,3.7-11.4
				S118,323.5,113.8,325.4z"/>
			<path id="Shape_4_" d="M102.5,390.4c3,3.6,8.4,4.2,12,1.2l26.7-21.9c3.6-3,4.2-8.4,1.2-12c-3-3.6-8.4-4.2-12-1.2l-26.7,21.9
				c-1.7,1.4-2.9,3.5-3.1,5.8S101.1,388.7,102.5,390.4z"/>
			<path id="Shape_5_" d="M108.2,223.1l-33.3-7.8c-4.6-1.1-9.2,1.8-10.3,6.4c-1.1,4.6,1.8,9.2,6.4,10.3l33.3,7.8
				c0.6,0.1,1.3,0.2,2,0.2c4.3,0,8-3.2,8.5-7.6C115.2,228.1,112.4,224.1,108.2,223.1z"/>
			<path id="Shape_6_" d="M403.1,308l33.3,7.8c0.6,0.1,1.3,0.2,2,0.2c4.3,0,8-3.2,8.5-7.6s-2.3-8.3-6.5-9.3l-33.3-7.8
				c-4.6-1.1-9.2,1.8-10.3,6.4S398.5,306.9,403.1,308L403.1,308z"/>
			<path id="Shape_7_" d="M386.1,329.3c-2.1,4.2-0.4,9.3,3.8,11.4l30.8,15.3c1.2,0.6,2.5,0.9,3.8,0.9c4,0,7.5-2.7,8.4-6.6
				c0.9-3.9-1-7.9-4.6-9.6l-30.8-15.3c-2-1-4.4-1.1-6.5-0.4C388.8,325.7,387.1,327.3,386.1,329.3L386.1,329.3z"/>
			<path id="Shape_8_" d="M368.9,357.7c-1.4,1.7-2.1,4-1.9,6.3c0.2,2.3,1.3,4.3,3.1,5.8l26.7,21.9c2.4,1.9,5.6,2.5,8.4,1.4
				c2.9-1.1,4.9-3.6,5.4-6.6c0.5-3-0.6-6.1-3-8l-26.7-21.9c-1.8-1.4-4-2.1-6.3-1.9C372.4,354.8,370.3,355.9,368.9,357.7L368.9,357.7
				z"/>
			<path id="Shape_9_" d="M436.4,215.3l-33.3,7.8c-4.2,1-7,5-6.5,9.3c0.5,4.3,4.1,7.6,8.5,7.6c0.7,0,1.3-0.1,2-0.2l33.3-7.8
				c4.6-1.1,7.4-5.7,6.4-10.3C445.6,217,441,214.2,436.4,215.3L436.4,215.3z"/>
			<path id="Shape_10_" d="M500.6,87.3L261.8,2c-3.8-1.3-7.9-1.3-11.6,0L11.3,87.3C4.6,89.7,0,96.2,0,103.4s4.5,13.6,11.3,16.1
				l108.1,38.6v39.2c0,9.2,8.3,16.2,25.6,21.7c-32.6,56.5-17.3,128.4,35.3,166.9c12.5,9.4,20.8,23.2,23.4,38.6
				c0.9,4.9,3.3,9.3,6.8,12.8c-5.3,6.4-7.1,15-4.9,23s8.3,14.4,16.1,17.1v1.6c0,18.9,15.3,34.1,34.1,34.1s34.1-15.3,34.1-34.1v-1.6
				c7.9-2.7,13.9-9.1,16.2-17.1s0.4-16.6-4.9-23c3.5-3.5,5.9-7.9,6.8-12.8c2.5-15.4,10.9-29.2,23.4-38.6
				c52.6-38.4,67.9-110.4,35.3-166.8c17.3-5.5,25.6-12.5,25.6-21.7v-39.2l17.1-6.1v19.7c0,9.4,7.6,17.1,17.1,17.1h17.1
				c9.4,0,17.1-7.6,17.1-17.1v-25.6c0-4-1-7.8-2.8-11.4l42.7-15.2c6.8-2.4,11.3-8.9,11.3-16.1S507.5,89.8,500.6,87.3L500.6,87.3z
				 M375.5,179c-34.1-15.2-108.7-15.8-119.5-15.8c-17.4,0-34.1,0.7-49.7,2c-23.8,0.9-47.4,5.5-69.8,13.6v-57.3
				c5.5-6.3,45.8-18,119.5-18s114,11.7,119.5,18V179z M137.7,197.3c10.4-5.6,21.8-9.1,33.6-10.5c-6,5.3-11.4,11.1-16.3,17.4
				C148.9,202.9,143,200.5,137.7,197.3z M256,495.9c-9.4,0-17.1-7.6-17.1-17.1h34.1C273.1,488.3,265.4,495.9,256,495.9z
				 M281.6,461.8h-51.2c-4.7,0-8.5-3.8-8.5-8.5s3.8-8.5,8.5-8.5h51.2c4.7,0,8.5,3.8,8.5,8.5S286.3,461.8,281.6,461.8z M321.5,372.1
				c-16,12-26.8,29.6-30.1,49.3c-0.9,3.8-4.3,6.4-8.2,6.3h-54.4c-3.9,0.1-7.3-2.5-8.2-6.3c-3.3-19.7-14.1-37.3-30.1-49.3
				c-31.7-23.2-48.7-61.3-44.9-100.4c3.9-39,28.1-73.1,63.6-89.6c14.7-1.2,30.4-1.8,46.7-1.8c17.3,0,32.8,0.6,46.4,1.7
				c35.7,16.4,60,50.5,64,89.6C370.3,310.6,353.2,348.9,321.5,372.1L321.5,372.1z M357,204.2c-4.9-6.3-10.4-12.1-16.3-17.4
				c11.8,1.4,23.2,4.9,33.7,10.5C369,200.5,363.2,202.8,357,204.2z M413.6,132.5l-21.1,7.5v-19.5c0-33.2-122.6-34.1-136.5-34.1
				c-14,0-136.5,1-136.5,34.1v19.5L17.1,103.4l239-85.3L426.7,79v43C421.3,123.9,416.7,127.6,413.6,132.5L413.6,132.5z M443.7,171.7
				h-17.1v-25.6c0-4.7,3.8-8.5,8.5-8.5s8.5,3.8,8.5,8.5V171.7z M443.7,121.7V85.1l51.2,18.3L443.7,121.7z"/>
			<path id="Shape_11_" d="M199.7,207.5C176,225.2,162,253,162.1,282.6c0,4.7,3.8,8.5,8.5,8.5c4.7,0,8.5-3.8,8.5-8.5
				c-0.1-24.2,11.3-47,30.8-61.4c2.4-1.8,3.7-4.8,3.4-7.8c-0.4-3-2.3-5.6-5.1-6.8C205.4,205.3,202.2,205.7,199.7,207.5L199.7,207.5z
				"/>
		</g>
	</g>
</g>
</svg>
