<?xml version="1.0" encoding="utf-8"?>
<!-- Generator: Adobe Illustrator 21.1.0, SVG Export Plug-In . SVG Version: 6.00 Build 0)  -->
<svg version="1.1" xmlns="http://www.w3.org/2000/svg" xmlns:xlink="http://www.w3.org/1999/xlink" x="0px" y="0px"
	 viewBox="0 0 512 512" style="enable-background:new 0 0 512 512;" xml:space="preserve">
<style type="text/css">
	.st0{fill:#FFFFFF;stroke:#000000;stroke-miterlimit:10;}
</style>
<g id="Layer_2">
	<polygon class="st0" points="256,22.6 225.4,4.7 113.3,10.5 109.8,272.3 261.3,272.3 393,272.3 401.7,263.6 401.7,16.2 382.6,9.9 
		271.1,7.6 	"/>
</g>
<g id="Layer_1">
	<g id="Page-1">
		<g id="_x30_09---Computer-Reading" transform="translate(-1)">
			<path id="Shape" d="M487.4,42.7h-42.7c0-9.4-7.6-17.1-17.1-17.1h-17.1v-8.5C410.6,7.6,403,0,393.5,0H274.1
				c-6.3,0-12.4,2.4-17.1,6.7C252.3,2.4,246.3,0,239.9,0H120.5c-9.4,0-17.1,7.6-17.1,17.1v8.5H86.3c-9.4,0-17.1,7.6-17.1,17.1H26.6
				C12.1,43.1,0.6,55.3,1,69.8v329.7c-0.4,14.5,11.1,26.7,25.6,27.1h148.3l-17.1,34.1H129c-14.1,0-25.6,11.5-25.6,25.6
				S114.9,512,129,512h256c14.1,0,25.6-11.5,25.6-25.6s-11.5-25.6-25.6-25.6h-28.9l-17.1-34.1h148.3c14.5-0.5,26-12.6,25.6-27.1
				V69.8C513.4,55.3,501.9,43.1,487.4,42.7z M274.1,17.1h119.5v213.3H274.1c-2.9,0-5.8,0.6-8.5,1.6V25.6
				C265.5,20.9,269.4,17.1,274.1,17.1z M248.5,264.5h-128v-17.1h119.5c4.7,0,8.5,3.8,8.5,8.5V264.5z M265.5,256
				c0-4.7,3.8-8.5,8.5-8.5h119.5v17.1h-128V256z M239.9,17.1c4.7,0,8.5,3.8,8.5,8.5V232c-2.7-1-5.6-1.5-8.5-1.6H120.5V17.1H239.9z
				 M86.3,42.7h17.1v221.9c0,9.4,7.6,17.1,17.1,17.1h273.1c9.4,0,17.1-7.6,17.1-17.1V42.7h17.1v256H296.8
				c-10.3-0.2-19.8,5.8-24,15.2c-2.7,6.3-8.9,10.4-15.7,10.4s-13.1-4.1-15.7-10.4c-4.2-9.4-13.7-15.4-24-15.2H86.3L86.3,42.7z
				 M393.5,486.4c0,4.7-3.8,8.5-8.5,8.5H129c-4.7,0-8.5-3.8-8.5-8.5s3.8-8.5,8.5-8.5h256C389.7,477.9,393.5,481.7,393.5,486.4z
				 M337.1,460.8H176.9l17.1-34.1h126L337.1,460.8z M487.4,409.6H26.6c-5.1-0.5-8.8-5-8.5-10.1v-24.1h34.1c4.7,0,8.5-3.8,8.5-8.5
				s-3.8-8.5-8.5-8.5H18.1V69.8c-0.3-5.1,3.4-9.5,8.5-10.1h42.7v238.9c0,9.4,7.6,17.1,17.1,17.1h130.9c3.5-0.2,6.7,1.7,8.3,4.8
				c5.3,12.6,17.7,20.9,31.4,20.9c13.7,0,26.1-8.2,31.4-20.9c1.6-3.1,4.8-5,8.3-4.8h130.9c9.4,0,17.1-7.6,17.1-17.1V59.7h42.7
				c5.1,0.5,8.8,5,8.5,10.1v288.6H86.3c-4.7,0-8.5,3.8-8.5,8.5s3.8,8.5,8.5,8.5h409.6v24.1C496.2,404.6,492.5,409.1,487.4,409.6
				L487.4,409.6z"/>
			<path id="Shape_1_" d="M146.1,59.7h68.3c4.7,0,8.5-3.8,8.5-8.5s-3.8-8.5-8.5-8.5h-68.3c-4.7,0-8.5,3.8-8.5,8.5
				S141.4,59.7,146.1,59.7z"/>
			<path id="Shape_2_" d="M214.3,76.8h-25.6c-4.7,0-8.5,3.8-8.5,8.5s3.8,8.5,8.5,8.5h25.6c4.7,0,8.5-3.8,8.5-8.5
				S219,76.8,214.3,76.8z"/>
			<path id="Shape_3_" d="M146.1,128h68.3c4.7,0,8.5-3.8,8.5-8.5c0-4.7-3.8-8.5-8.5-8.5h-68.3c-4.7,0-8.5,3.8-8.5,8.5
				C137.5,124.2,141.4,128,146.1,128z"/>
			<path id="Shape_4_" d="M146.1,196.3h42.7c4.7,0,8.5-3.8,8.5-8.5c0-4.7-3.8-8.5-8.5-8.5h-42.7c-4.7,0-8.5,3.8-8.5,8.5
				C137.5,192.4,141.4,196.3,146.1,196.3z"/>
			<path id="Shape_5_" d="M146.1,93.9h8.5c4.7,0,8.5-3.8,8.5-8.5s-3.8-8.5-8.5-8.5h-8.5c-4.7,0-8.5,3.8-8.5,8.5
				S141.4,93.9,146.1,93.9z"/>
			<path id="Shape_6_" d="M146.1,162.1h25.6c4.7,0,8.5-3.8,8.5-8.5s-3.8-8.5-8.5-8.5h-25.6c-4.7,0-8.5,3.8-8.5,8.5
				S141.4,162.1,146.1,162.1z"/>
			<path id="Shape_7_" d="M214.3,145.1h-8.5c-4.7,0-8.5,3.8-8.5,8.5s3.8,8.5,8.5,8.5h8.5c4.7,0,8.5-3.8,8.5-8.5
				S219,145.1,214.3,145.1z"/>
			<path id="Shape_8_" d="M299.7,59.7h68.3c4.7,0,8.5-3.8,8.5-8.5s-3.8-8.5-8.5-8.5h-68.3c-4.7,0-8.5,3.8-8.5,8.5
				S295,59.7,299.7,59.7z"/>
			<path id="Shape_9_" d="M367.9,76.8h-25.6c-4.7,0-8.5,3.8-8.5,8.5s3.8,8.5,8.5,8.5h25.6c4.7,0,8.5-3.8,8.5-8.5
				S372.6,76.8,367.9,76.8z"/>
			<path id="Shape_10_" d="M299.7,128h68.3c4.7,0,8.5-3.8,8.5-8.5c0-4.7-3.8-8.5-8.5-8.5h-68.3c-4.7,0-8.5,3.8-8.5,8.5
				C291.1,124.2,295,128,299.7,128z"/>
			<path id="Shape_11_" d="M299.7,196.3h42.7c4.7,0,8.5-3.8,8.5-8.5c0-4.7-3.8-8.5-8.5-8.5h-42.7c-4.7,0-8.5,3.8-8.5,8.5
				C291.1,192.4,295,196.3,299.7,196.3z"/>
			<path id="Shape_12_" d="M299.7,93.9h8.5c4.7,0,8.5-3.8,8.5-8.5s-3.8-8.5-8.5-8.5h-8.5c-4.7,0-8.5,3.8-8.5,8.5
				S295,93.9,299.7,93.9z"/>
			<path id="Shape_13_" d="M299.7,162.1h25.6c4.7,0,8.5-3.8,8.5-8.5s-3.8-8.5-8.5-8.5h-25.6c-4.7,0-8.5,3.8-8.5,8.5
				S295,162.1,299.7,162.1z"/>
			<path id="Shape_14_" d="M367.9,145.1h-8.5c-4.7,0-8.5,3.8-8.5,8.5s3.8,8.5,8.5,8.5h8.5c4.7,0,8.5-3.8,8.5-8.5
				S372.6,145.1,367.9,145.1z"/>
		</g>
	</g>
</g>
</svg>
