<?xml version="1.0" encoding="utf-8"?>
<!-- Generator: Adobe Illustrator 21.1.0, SVG Export Plug-In . SVG Version: 6.00 Build 0)  -->
<svg version="1.1" id="Capa_1" xmlns="http://www.w3.org/2000/svg" xmlns:xlink="http://www.w3.org/1999/xlink" x="0px" y="0px"
	 viewBox="0 0 512 512" style="enable-background:new 0 0 512 512;" xml:space="preserve">
<style type="text/css">
	.st0{fill:#F4DA40;stroke:#000000;stroke-miterlimit:10;}
</style>
<polygon class="st0" points="249,16.5 204,107.5 89.5,132.5 159.5,220 149,328 256,287.5 361,331 348,215.5 427.5,135 316,104.5 
	267.5,16.5 "/>
<g>
	<g>
		<path d="M435.1,130.1c-3.5-10.7-12.5-18.3-23.6-19.9l-89.3-13l-39.9-80.9v0c-5-10-15-16.3-26.2-16.3c-11.2,0-21.2,6.2-26.2,16.3
			l-39.9,80.9l-89.3,13c-11.1,1.6-20.1,9.2-23.6,19.9c-3.5,10.7-0.6,22.1,7.4,30l64.6,63l-15.3,89c-1.9,11,2.6,22,11.6,28.6
			c9.1,6.6,20.9,7.4,30.8,2.2l64.9-34.1v93.6h-63.7c-19.9,0-36.2,16.2-36.2,36.2V482h-19.8c-8.3,0-15,6.7-15,15s6.7,15,15,15h269.3
			c8.3,0,15-6.7,15-15s-6.7-15-15-15h-19.8v-43.5c0-19.9-16.2-36.2-36.2-36.2H271v-93.6l64.9,34.1c4.3,2.3,9,3.4,13.6,3.4
			c6,0,12-1.9,17.1-5.6c9.1-6.6,13.5-17.5,11.6-28.6L363,223l64.6-63C435.7,152.2,438.5,140.7,435.1,130.1z M334.7,432.3
			c3.4,0,6.1,2.8,6.1,6.1V482H171.2v-43.5c0-3.4,2.8-6.1,6.1-6.1L334.7,432.3L334.7,432.3z M341.8,201.8c-6.9,6.7-10,16.4-8.4,25.9
			l15.1,87.8L269.6,274c-4.3-2.2-8.9-3.4-13.6-3.4c-4.7,0-9.3,1.1-13.6,3.4l-78.8,41.4l15.1-87.8c1.6-9.5-1.5-19.1-8.4-25.9
			l-63.8-62.2l88.1-12.8c9.5-1.4,17.7-7.4,22-16L256,31l39.4,79.8c4.3,8.6,12.5,14.6,22,16l88.1,12.8L341.8,201.8z"/>
	</g>
</g>
</svg>
