<?xml version="1.0" encoding="utf-8"?>
<!-- Generator: Adobe Illustrator 21.1.0, SVG Export Plug-In . SVG Version: 6.00 Build 0)  -->
<svg version="1.1" id="Layer" xmlns="http://www.w3.org/2000/svg" xmlns:xlink="http://www.w3.org/1999/xlink" x="0px" y="0px"
	 viewBox="0 0 397 333" style="enable-background:new 0 0 397 333;" xml:space="preserve">
<path d="M385.4,139L246,6.2c-4.2-4-9.7-6.2-15.5-6.2c-6.1,0-12.1,2.5-16.3,7c-8.6,9-8.2,23.3,0.8,31.8L325.9,144H22.5
	C10.1,144,0,154.1,0,166.5C0,178.9,10.1,189,22.5,189h302.9L215,294.2c-9,8.6-9.3,22.8-0.8,31.8c4.4,4.6,10.3,7,16.3,7
	c5.6,0,11.2-2.1,15.5-6.2l139.6-133l0.1-0.1c7.3-7.3,11.3-16.9,11.3-27.2C397,156.2,392.9,146.5,385.4,139z"/>
</svg>
