<?xml version="1.0" encoding="utf-8"?>
<!-- Generator: Adobe Illustrator 21.1.0, SVG Export Plug-In . SVG Version: 6.00 Build 0)  -->
<svg version="1.1" id="Layer_1" xmlns="http://www.w3.org/2000/svg" xmlns:xlink="http://www.w3.org/1999/xlink" x="0px" y="0px"
	 viewBox="0 0 512 512" style="enable-background:new 0 0 512 512;" xml:space="preserve">
<style type="text/css">
	.st0{fill:#FFFFFF;stroke:#000000;stroke-miterlimit:10;}
</style>
<rect x="174.2" y="62.3" class="st0" width="202.9" height="131.3"/>
<g id="Page-1">
	<g id="_x30_05---Holding-Book">
		<path id="Shape" d="M384,187.7V68.3c0-9.4-7.6-17.1-17.1-17.1H179.2c-9.4,0-17.1,7.6-17.1,17.1v119.5c0,9.4,7.6,17.1,17.1,17.1
			h187.7C376.4,204.8,384,197.2,384,187.7z M179.2,68.3h187.7v119.5H179.2V68.3z"/>
		<path id="Shape_1_" d="M315.7,401.1H213.3c-4.7,0-8.5,3.8-8.5,8.5c0,4.7,3.8,8.5,8.5,8.5h102.4c4.7,0,8.5-3.8,8.5-8.5
			C324.3,404.9,320.4,401.1,315.7,401.1z"/>
		<path id="Shape_2_" d="M281.6,435.2h-68.3c-4.7,0-8.5,3.8-8.5,8.5c0,4.7,3.8,8.5,8.5,8.5h68.3c4.7,0,8.5-3.8,8.5-8.5
			C290.1,439,286.3,435.2,281.6,435.2z"/>
		<path id="Shape_3_" d="M435.2,204.8V25.6c0-14.1-11.5-25.6-25.6-25.6H102.4C88.3,0,76.8,11.5,76.8,25.6v179.2
			C34.4,204.9,0.1,239.2,0,281.6v85.3c0,33,26.8,59.7,59.7,59.7h17.1v59.7c0,14.1,11.5,25.6,25.6,25.6h307.2
			c14.1,0,25.6-11.5,25.6-25.6v-59.7h17.1c33,0,59.7-26.8,59.7-59.7v-85.3C512,239.2,477.6,204.8,435.2,204.8z M93.9,25.6
			c0-4.7,3.8-8.5,8.5-8.5h8.5v221.9H93.9V25.6z M17.1,366.9v-85.3c0-33,26.8-59.7,59.7-59.7v17.1h-8.5c-4.7,0-8.5,3.8-8.5,8.5
			c0,4.7,3.8,8.5,8.5,8.5h81.1c7.1,0,12.8,5.7,12.8,12.8s-5.7,12.8-12.8,12.8H93.9c-4.7,0-8.5,3.8-8.5,8.5c0,4.7,3.8,8.5,8.5,8.5
			h81.1c7.1,0,12.8,5.7,12.8,12.8s-5.7,12.8-12.8,12.8H93.9c-4.7,0-8.5,3.8-8.5,8.5s3.8,8.5,8.5,8.5h55.5c7.1,0,12.8,5.7,12.8,12.8
			c0,7.1-5.7,12.8-12.8,12.8H93.9c-4.7,0-8.5,3.8-8.5,8.5c0,4.7,3.8,8.5,8.5,8.5h29.9c7.1,0,12.8,5.7,12.8,12.8s-5.7,12.8-12.8,12.8
			h-64C36.2,409.6,17.1,390.5,17.1,366.9z M93.9,486.4v-59.7h17.1v68.3h-8.5C97.7,494.9,93.9,491.1,93.9,486.4z M418.1,486.4
			c0,4.7-3.8,8.5-8.5,8.5H128v-68.7c14.7-2.1,25.6-14.6,25.6-29.4c0-4.5-1.1-8.9-3.1-12.9c16-0.6,28.6-13.8,28.7-29.7
			c0-4.5-1.1-8.9-3.1-12.9c16-0.5,28.8-13.7,28.8-29.7c0-16-12.7-29.2-28.8-29.7c2-4,3-8.4,3.1-12.9c0-16.5-13.4-29.9-29.9-29.9H128
			V17.1h281.6c4.7,0,8.5,3.8,8.5,8.5v213.3h-55.5c-16.5,0-29.9,13.4-29.9,29.9c0,4.5,1.1,8.9,3.1,12.9c-16,0.5-28.8,13.7-28.8,29.7
			c0,16,12.7,29.2,28.8,29.7c-2,4-3,8.4-3.1,12.9c0.1,16,12.7,29.1,28.7,29.7c-2,4-3,8.4-3.1,12.9c0,7.9,3.1,15.5,8.7,21.1
			c5.6,5.6,13.2,8.7,21.1,8.7h29.9V486.4z M494.9,366.9c0,23.6-19.1,42.6-42.7,42.7h-64c-7.1,0-12.8-5.7-12.8-12.8
			s5.7-12.8,12.8-12.8h29.9c4.7,0,8.5-3.8,8.5-8.5c0-4.7-3.8-8.5-8.5-8.5h-55.5c-7.1,0-12.8-5.7-12.8-12.8c0-7.1,5.7-12.8,12.8-12.8
			h55.5c4.7,0,8.5-3.8,8.5-8.5s-3.8-8.5-8.5-8.5h-81.1c-7.1,0-12.8-5.7-12.8-12.8s5.7-12.8,12.8-12.8h81.1c4.7,0,8.5-3.8,8.5-8.5
			c0-4.7-3.8-8.5-8.5-8.5h-55.5c-7.1,0-12.8-5.7-12.8-12.8s5.7-12.8,12.8-12.8h81.1c4.7,0,8.5-3.8,8.5-8.5c0-4.7-3.8-8.5-8.5-8.5
			h-8.5v-17.1c33,0,59.7,26.8,59.7,59.7V366.9z"/>
	</g>
</g>
</svg>
