<?xml version="1.0" encoding="utf-8"?>
<!-- Generator: Adobe Illustrator 21.1.0, SVG Export Plug-In . SVG Version: 6.00 Build 0)  -->
<svg version="1.1" xmlns="http://www.w3.org/2000/svg" xmlns:xlink="http://www.w3.org/1999/xlink" x="0px" y="0px"
	 viewBox="0 0 512 512" style="enable-background:new 0 0 512 512;" xml:space="preserve">
<style type="text/css">
	.st0{fill:#F4DA40;stroke:#000000;stroke-miterlimit:10;}
</style>
<g id="Layer_2">
	<circle class="st0" cx="396.9" cy="398.6" r="98.1"/>
</g>
<g id="Layer_1">
	<g id="Page-1">
		<g id="_x30_43---Passed-Assignment">
			<path id="Shape" d="M271,169.6c3.3,3.3,8.6,3.3,11.9,0l25.2-25.2c3.2-3.3,3.1-8.5-0.1-11.8c-3.2-3.2-8.5-3.3-11.8-0.1L277,151.8
				l-2.5-2.5c-3.3-3.2-8.5-3.1-11.8,0.1s-3.3,8.5-0.1,11.8L271,169.6z"/>
			<path id="Shape_1_" d="M50.4,163.7h167.9c4.6,0,8.4-3.8,8.4-8.4c0-4.6-3.8-8.4-8.4-8.4H50.4c-4.6,0-8.4,3.8-8.4,8.4
				C42,159.9,45.7,163.7,50.4,163.7z"/>
			<path id="Shape_2_" d="M271,220c3.3,3.3,8.6,3.3,11.9,0l25.2-25.2c3.2-3.3,3.1-8.5-0.1-11.8s-8.5-3.3-11.8-0.1L277,202.2
				l-2.5-2.5c-3.3-3.2-8.5-3.1-11.8,0.1s-3.3,8.5-0.1,11.8L271,220z"/>
			<path id="Shape_3_" d="M50.4,214h167.9c4.6,0,8.4-3.8,8.4-8.4s-3.8-8.4-8.4-8.4H50.4c-4.6,0-8.4,3.8-8.4,8.4S45.7,214,50.4,214z"
				/>
			<path id="Shape_4_" d="M271,270.3c3.3,3.3,8.6,3.3,11.9,0l25.2-25.2c3.2-3.3,3.1-8.5-0.1-11.8s-8.5-3.3-11.8-0.1L277,252.5
				l-2.5-2.5c-3.3-3.2-8.5-3.1-11.8,0.1s-3.3,8.5-0.1,11.8L271,270.3z"/>
			<path id="Shape_5_" d="M50.4,264.4h167.9c4.6,0,8.4-3.8,8.4-8.4c0-4.6-3.8-8.4-8.4-8.4H50.4c-4.6,0-8.4,3.8-8.4,8.4
				C42,260.6,45.7,264.4,50.4,264.4z"/>
			<path id="Shape_6_" d="M308.1,283.6c-3.3-3.3-8.6-3.3-11.9,0L277,302.9l-2.5-2.5c-3.3-3.2-8.5-3.1-11.8,0.1s-3.3,8.5-0.1,11.8
				l8.4,8.4c3.3,3.3,8.6,3.3,11.9,0l25.2-25.2C311.4,292.2,311.4,286.9,308.1,283.6L308.1,283.6z"/>
			<path id="Shape_7_" d="M429.6,351.9l-53,75.7l-18.1-18.1c-3.3-3.2-8.5-3.1-11.8,0.1s-3.3,8.5-0.1,11.8l25.2,25.2
				c1.6,1.6,3.7,2.5,5.9,2.5c0.2,0,0.5,0,0.7,0c2.5-0.2,4.7-1.5,6.1-3.6l58.8-83.9c1.8-2.5,2.2-5.7,0.9-8.5c-1.3-2.8-3.9-4.7-7-4.9
				C434.2,347.9,431.3,349.4,429.6,351.9L429.6,351.9z"/>
			<path id="Shape_8_" d="M226.6,306.4c0-4.6-3.8-8.4-8.4-8.4H50.4c-4.6,0-8.4,3.8-8.4,8.4s3.8,8.4,8.4,8.4h167.9
				C222.9,314.8,226.6,311,226.6,306.4z"/>
			<path id="Shape_9_" d="M150.2,369.8c-1.6-2.6-4.4-4.3-7.5-4.3c-3.1,0-5.9,1.6-7.5,4.3l-33.6,67.1c-1.3,2.7-1.1,5.9,0.5,8.4
				c1.7,2.5,4.5,3.9,7.5,3.8s5.7-1.9,7-4.6l10.2-20.5h31.6l10.3,20.5c2.1,4.1,7.1,5.8,11.3,3.8c4.1-2.1,5.8-7.1,3.8-11.3
				L150.2,369.8z M135.3,407.1l7.4-14.8l7.4,14.8H135.3z"/>
			<path id="Shape_10_" d="M226.6,381.9h-8.4v-8.4c0-4.6-3.8-8.4-8.4-8.4c-4.6,0-8.4,3.8-8.4,8.4v8.4H193c-4.6,0-8.4,3.8-8.4,8.4
				s3.8,8.4,8.4,8.4h8.4v8.4c0,4.6,3.8,8.4,8.4,8.4c4.6,0,8.4-3.8,8.4-8.4v-8.4h8.4c4.6,0,8.4-3.8,8.4-8.4S231.3,381.9,226.6,381.9z
				"/>
			<path id="Shape_11_" d="M394.5,289.6c-8.5,0-16.9,1.1-25.2,3V104.9c0-2.2-0.9-4.4-2.5-5.9L274.5,6.7c-1.6-1.6-3.7-2.5-5.9-2.5
				H25.2C11.3,4.2,0,15.5,0,29.4v453.2c0,13.9,11.3,25.2,25.2,25.2h319c5.8,0,11.4-2,15.8-5.7c41,13.8,86.3,2.1,115.4-29.9
				s36.7-78.1,19.1-117.7C477,314.9,437.8,289.5,394.5,289.6L394.5,289.6z M277,32.9l63.7,63.7h-55.3c-4.6,0-8.4-3.8-8.4-8.4V32.9z
				 M25.2,491c-4.6,0-8.4-3.8-8.4-8.4V29.4c0-4.6,3.8-8.4,8.4-8.4h235v67.1c0,13.9,11.3,25.2,25.2,25.2h67.1V298
				c-37.7,15.6-63.5,51-66.8,91.7c-3.4,40.7,16.3,79.8,50.9,101.4H25.2z M394.5,491c-51,0-92.3-41.3-92.3-92.3s41.3-92.3,92.3-92.3
				s92.3,41.3,92.3,92.3C486.8,449.7,445.5,491,394.5,491z"/>
		</g>
	</g>
</g>
</svg>
