<?xml version="1.0" encoding="utf-8"?>
<!-- Generator: Adobe Illustrator 21.1.0, SVG Export Plug-In . SVG Version: 6.00 Build 0)  -->
<svg version="1.1" id="Layer_1" xmlns="http://www.w3.org/2000/svg" xmlns:xlink="http://www.w3.org/1999/xlink" x="0px" y="0px"
	 viewBox="0 0 823.9 809.7" style="enable-background:new 0 0 823.9 809.7;" xml:space="preserve">
<style type="text/css">
	.st0{fill:#EFEFEF;}
</style>
<g>
	<path class="st0" d="M408.9,133.5v125.7c0,89.5-48.7,133.5-128.2,133.5H16.2V0h264.5C360.2,0,408.9,44,408.9,133.5"/>
	<polygon class="st0" points="708,276.8 708,254.3 823.9,254.3 823.9,138.4 708,138.4 708,115.9 823.9,115.9 823.9,0 431.2,0 
		431.2,392.7 823.9,392.7 823.9,276.8 	"/>
	<polygon class="st0" points="507.6,628.5 525.8,628.5 516.7,572.4 	"/>
	<path class="st0" d="M268.4,575H256v76.7h12.4c8.7,0,13.9-4.6,13.9-18.9v-38.7C282.3,579.8,277,575,268.4,575"/>
	<path class="st0" d="M699.3,573.2c-8.5,0-13.9,5-13.9,20.1v40.3c0,15.2,5.3,20.1,13.9,20.1c8.7,0,13.9-5,13.9-20.1v-40.3
		C713.3,578.1,708,573.2,699.3,573.2"/>
	<path class="st0" d="M785.8,555.3l19.1,99.3v-99.3h19V417H128.2C48.7,417,0,461,0,550.5v125.7c0,89.5,48.7,133.5,128.2,133.5h695.6
		V671.5h-34.1l-19.2-100.7v100.7h-19.2V555.3H785.8z M220.3,575H187v27.1h30.2V622H187v29.7h33.3v19.8h-55.6V555.3h55.6V575z
		 M304.8,632.3c0,26.2-13.8,39.2-36.4,39.2h-34.9V555.3h34.9c22.6,0,36.4,13,36.4,39V632.3z M390.7,635.1
		c0,25.7-13.5,38.4-35.6,38.4c-22.2,0-35.6-12.7-35.6-38.4v-79.8h22.5v80.1c0,13.6,5,18.3,13.2,18.3c8.2,0,13.2-4.6,13.2-18.3v-80.1
		h22.5V635.1z M473.3,600.8h-22.5v-7.7c0-15.2-5.3-20.1-13.9-20.1c-8.5,0-13.9,5-13.9,20.1v40.3c0,15.2,5.3,20.1,13.9,20.1
		s13.9-5,13.9-20.1V624h22.5v8.8c0,27-13.8,40.4-36.4,40.4s-36.4-13.5-36.4-40.4v-39.5c0-27,13.8-40.3,36.4-40.3
		s36.4,13.3,36.4,40.3V600.8z M533,671.5l-3.9-23.7h-24.8l-3.9,23.7h-21.7h-0.3l0.1-0.5l21-115.7h34.4l21.2,116.2H533z M615.7,575
		h-20.8v96.5h-22.5V575h-20.9v-19.7h64.1V575z M647.4,671.5H625V555.3h22.5V671.5z M735.8,633.1c0,27.1-13.8,40.4-36.4,40.4
		c-22.6,0-36.4-13.3-36.4-40.4v-39.5c0-27,13.8-40.3,36.4-40.3c22.6,0,36.4,13.3,36.4,40.3V633.1z"/>
</g>
</svg>
