<?xml version="1.0" encoding="utf-8"?>
<!-- Generator: Adobe Illustrator 21.1.0, SVG Export Plug-In . SVG Version: 6.00 Build 0)  -->
<svg version="1.1" id="Layer_1" xmlns="http://www.w3.org/2000/svg" xmlns:xlink="http://www.w3.org/1999/xlink" x="0px" y="0px"
	 viewBox="0 0 25 25" style="enable-background:new 0 0 25 25;" xml:space="preserve">
<style type="text/css">
	.st0{fill:#F4DA40;}
</style>
<g>
	<circle class="st0" cx="12.5" cy="12.5" r="12.5"/>
</g>
<g>
	<g>
		<g>
			<path d="M17.4,7.9H7.6C7.4,7.9,7.2,8,7.1,8l5.4,5.4l1.2-1.2c0,0,0,0,0,0c0,0,0,0,0,0L17.9,8C17.8,8,17.6,7.9,17.4,7.9z"/>
		</g>
	</g>
	<g>
		<g>
			<path d="M18.4,8.5l-4,4l4,4c0.1-0.1,0.1-0.3,0.1-0.5V9C18.5,8.8,18.5,8.7,18.4,8.5z"/>
		</g>
	</g>
	<g>
		<g>
			<path d="M6.6,8.5C6.5,8.7,6.5,8.8,6.5,9v7c0,0.2,0,0.3,0.1,0.5l4-4L6.6,8.5z"/>
		</g>
	</g>
	<g>
		<g>
			<path d="M13.9,13l-1.2,1.2c-0.1,0.1-0.2,0.1-0.2,0.1s-0.2,0-0.2-0.1L11.1,13l-4,4c0.1,0.1,0.3,0.1,0.5,0.1h9.9
				c0.2,0,0.3,0,0.5-0.1L13.9,13z"/>
		</g>
	</g>
</g>
</svg>
