<?xml version="1.0" encoding="utf-8"?>
<!-- Generator: Adobe Illustrator 21.1.0, SVG Export Plug-In . SVG Version: 6.00 Build 0)  -->
<svg version="1.1" xmlns="http://www.w3.org/2000/svg" xmlns:xlink="http://www.w3.org/1999/xlink" x="0px" y="0px"
	 viewBox="0 0 512 512" style="enable-background:new 0 0 512 512;" xml:space="preserve">
<style type="text/css">
	.st0{fill:#F4DA40;stroke:#000000;stroke-miterlimit:10;}
</style>
<g id="Layer_2">
	<path class="st0" d="M143.1,32.2l32.2,35.7L192,85v19.7l-28,9.9l-23.3,4.2L123,139v18.2l5.2,21.3l29.3,16.1l30.9,8.8l7.3,61.7v29.6
		l10.9,3.1H221l48.8-110l21.3-0.5l12.5-10.9l-4.2-22.3l-32.7-1L256,128.6l6-33.2L300.4,84l41-21.3l21.8-25.4
		C363.2,37.3,230.3-21.1,143.1,32.2z"/>
</g>
<g id="Layer_1">
	<g id="Page-1">
		<g id="_x30_36---Geography-Book" transform="translate(0 -1)">
			<path id="Shape" d="M494.9,427.7h-1.9l-3.7-14.7c-2.9-11.4-13.1-19.4-24.8-19.4h-21.8c-20,0.2-39.8-2.8-58.9-8.7
				c80.2-60.2,107.7-168.1,66-259.4S308.5-15.5,210.5,5.9S42.6,114,42.7,214.3c-0.2,67.2,31.5,130.4,85.4,170.5
				c-19.1,5.9-38.9,8.8-58.9,8.7H47.5c-11.7,0-22,8-24.8,19.4l-3.7,14.7h-1.9c-9.4,0-17.1,7.6-17.1,17.1v17.1
				c0,9.4,7.6,17.1,17.1,17.1h169.3c6.3,0.2,12.1,3.8,15.2,9.3c9.6,15.1,30.9,24.8,54.4,24.8s44.8-9.7,54.4-24.8
				c3.1-5.5,8.9-9.1,15.2-9.3h169.3c9.4,0,17.1-7.6,17.1-17.1v-17.1C512,435.3,504.4,427.7,494.9,427.7L494.9,427.7z M364.8,377.5
				c-14.5-6.2-30-9.4-45.8-9.4c-5.5-4.6-9.4-11-11-18c-2.3-10.1,0.1-20.8,6.6-29s16.3-12.9,26.7-12.9c4.1-0.1,8.3,0.5,12.1,2
				c8.8,3.9,19.1,2,26-4.8l0.7-0.7c8.5-8.2,9.5-21.6,2.1-30.9c-12.2-20-8.9-45.7,7.8-62.1c14.3-14.3,31.8-15,47-14.6
				c5,0.2,9.9,1.1,14.6,2.5c0.4,4.8,0.6,9.7,0.6,14.6C452.4,280,419.5,341.3,364.8,377.5z M350,42.1c-19.3,24.8-48,40.5-79.2,43.5
				c-13.1,1.3-23.2,12.3-23.2,25.4v26.5c0,14.1,11.5,25.6,25.6,25.6h16.1c4.1-0.2,7.9,2.4,9.2,6.4c0.8,3-0.1,6.1-2.3,8.2
				c-1.6,1.6-3.7,2.5-5.9,2.5h-13.9c-10.6,0-20,6.5-23.8,16.4l-34.7,90.3c-1.2,3.1-4.6,4.9-7.9,4.1c-3.1-1.1-5.2-4.2-5-7.5v-69.1
				c0-14.1-11.5-25.6-25.6-25.6H164c-18,0.4-33.4-12.9-35.8-30.7c-0.9-9.6,2.2-19.1,8.7-26.3s15.6-11.2,25.3-11.3
				c11.3,0.4,22.4-3,31.6-9.7c6.6-5.1,10.4-13.2,9.9-21.5c-0.4-8.4-5-16-12.1-20.4c-11.5-6.9-21.5-16.1-29.5-26.8
				C220.6,10.1,291.4,10.1,350,42.1L350,42.1z M59.7,214.3c0-65.7,33-127.1,87.7-163.4c9.5,13.1,21.5,24.2,35.3,32.6
				c2.3,1.4,3.8,3.9,3.9,6.6c0.2,2.8-1,5.4-3.2,7.1c-6.2,4.4-13.7,6.6-21.3,6.2c-14.4,0-28.2,6.1-37.9,16.8s-14.5,25-13.1,39.4
				c3.3,26.6,26.1,46.5,52.9,46.2h15.2c4.7,0,8.5,3.8,8.5,8.5v69.1c-0.2,11.3,7.3,21.2,18.2,24.1c11.6,2.8,23.4-3.4,27.7-14.5
				l34.7-90.3c1.3-3.3,4.4-5.4,7.9-5.4h13.9c6.8,0,13.3-2.6,18-7.5c6.5-6.3,9.1-15.6,6.8-24.4c-3.2-11.6-13.8-19.5-25.8-19.3h-16.1
				c-4.7,0-8.5-3.8-8.5-8.5V111c0.1-4.5,3.6-8.2,8-8.5c36.5-3.5,69.9-22.2,92-51.5c45.1,30,75.8,77.2,84.9,130.6
				c-3.9-0.8-7.9-1.2-11.9-1.3c-21.8-2.4-43.5,4.7-59.6,19.6c-22.9,22.3-26.9,57.7-9.4,84.5c2,2.4,1.9,6-0.3,8.3l-0.9,0.9
				c-1.9,1.9-4.8,2.3-7.2,1.2c-6-2.4-12.4-3.6-18.8-3.4c-15.6,0-30.3,7.1-40,19.3c-9.7,12.2-13.4,28.1-10,43.3
				c1.2,5.5,3.4,10.7,6.3,15.5c-15.5,1.2-30.2,7.6-41.7,18.2c-8.7-8.9-26.2-19.4-59.7-19.4c-16.8-0.3-33.6,2.9-49.1,9.5
				C92.5,341.3,59.6,280,59.7,214.3L59.7,214.3z M39.2,417.1c0.9-3.8,4.4-6.5,8.3-6.5h21.8c29.1,0.4,57.9-5.5,84.5-17.4
				c13.4-5.8,28-8.6,42.6-8.2c43.4,0,51.4,19.1,51.6,19.8c1.2,3.4,4.3,5.7,7.9,5.7c3.7,0.2,7-2.1,8.2-5.5c0.3-0.8,8.3-20,51.7-20
				c14.6-0.4,29.1,2.4,42.6,8.2c26.6,11.9,55.4,17.8,84.5,17.4h21.8c3.9,0,7.3,2.7,8.3,6.5l2.7,10.6h-439L39.2,417.1z M494.9,461.8
				H325.6c-12.2,0.3-23.4,6.8-29.6,17.2c-6.4,10.1-22.5,16.9-40,16.9s-33.6-6.8-40-16.9c-6.3-10.5-17.5-17-29.6-17.2H17.1v-17.1
				h477.9L494.9,461.8z"/>
		</g>
	</g>
</g>
</svg>
