<?xml version="1.0" encoding="utf-8"?>
<!-- Generator: Adobe Illustrator 21.1.0, SVG Export Plug-In . SVG Version: 6.00 Build 0)  -->
<svg version="1.1" id="Layer_1" xmlns="http://www.w3.org/2000/svg" xmlns:xlink="http://www.w3.org/1999/xlink" x="0px" y="0px"
	 viewBox="0 0 512 512" style="enable-background:new 0 0 512 512;" xml:space="preserve">
<style type="text/css">
	.st0{fill:#FFFFFF;}
</style>
<path class="st0" d="M79,504h351c6.6,0,12-5.4,12-12V330c0-6.6-5.4-12-12-12H79c-6.6,0-12,5.4-12,12v162C67,498.6,72.4,504,79,504z"
	/>
<g id="Page-1">
	<g id="_x30_55---Learning-Maths">
		<path id="Shape" d="M426.7,307.2v-8.5c0-14.1-11.5-25.6-25.6-25.6h-8.5v-19.3c0-6.2-1.7-12.3-4.9-17.6c6.3-11.2,6.5-24.8,0.6-36.2
			c-5.9-11.4-17.1-19.1-29.9-20.4v-77.2C358.4,45.8,312.6,0,256,0S153.6,45.8,153.6,102.4v77.2c-12.8,1.4-24,9-29.9,20.4
			c-5.9,11.4-5.7,25,0.6,36.2c-3.2,5.3-4.9,11.4-4.9,17.6v19.3h-8.5c-14.1,0-25.6,11.5-25.6,25.6v8.5c-14.1,0-25.6,11.5-25.6,25.6
			v153.6c0,14.1,11.5,25.6,25.6,25.6h341.3c14.1,0,25.6-11.5,25.6-25.6V332.8C452.3,318.7,440.8,307.2,426.7,307.2z M409.6,298.7
			v8.5H266.1c3.6-10.2,13.2-17,24-17.1h110.9C405.8,290.1,409.6,294,409.6,298.7z M264.5,324.3v170.7h-17.1V324.3H264.5z
			 M375.5,217.6c0,2.1-0.4,4.1-1,6.1c-4-2.2-8.5-3.5-13-3.9l-62.8-5.7v-19.8c13.4-14.8,22.1-33.3,25-53c5.8,1.6,11.7,2.7,17.7,3.3
			v51.7c0.3,4.4,3.9,7.8,8.3,7.9c4.4,0.1,8.1-3.1,8.7-7.5C368.3,198.7,375.5,207.4,375.5,217.6z M255.7,204.8
			c-15.2,0-50.2-38.9-50.5-66.9c0-0.4,0-1.5,0-3c20.1-10,37.6-24.7,50.9-42.9c13.3,18.1,30.7,32.8,50.9,42.9v2.9
			C306.4,167.6,269.4,204.8,255.7,204.8L255.7,204.8z M230.4,211c7.1,6.2,15.9,10,25.3,10.9c9.6-1,18.7-4.9,25.9-11.2v10.2
			c-3.3,11.3-13.9,18.8-25.6,18.1c-11.7,0.6-22.3-6.9-25.6-18.2V211z M256,17.1c47.1,0.1,85.3,38.2,85.3,85.3v25
			c-49.3-6-77.7-54.3-77.9-54.8c-1.6-2.5-4.4-4-7.4-4s-5.8,1.5-7.4,4c-0.3,0.5-28.7,48.8-77.9,54.8v-25
			C170.7,55.3,208.9,17.1,256,17.1z M153.7,196.7c0.5,4.4,4.3,7.6,8.7,7.5s8-3.5,8.3-7.9v-51.7c6-0.6,11.9-1.7,17.7-3.3
			c2.8,19.9,11.5,38.5,25,53.4v19.4l-62.8,5.7c-4.6,0.4-9,1.8-13,3.9c-0.6-2-1-4-1-6.1C136.5,207.4,143.7,198.7,153.7,196.7z
			 M136.5,253.8c0-8.8,6.7-16.2,15.5-17l64-5.8c7,15.7,22.8,25.6,39.9,25c17.2,0.5,33-9.4,40-25l64,5.8c8.8,0.8,15.5,8.2,15.5,17
			v19.3h-85.3c-13.5,0-26.1,6.5-34.1,17.3c-8-10.9-20.7-17.3-34.1-17.3h-85.3V253.8z M102.4,298.7c0-4.7,3.8-8.5,8.5-8.5h110.9
			c10.8,0,20.4,6.9,24,17.1H102.4V298.7z M76.8,486.4V332.8c0-4.7,3.8-8.5,8.5-8.5h145.1v170.7H85.3
			C80.6,494.9,76.8,491.1,76.8,486.4z M435.2,486.4c0,4.7-3.8,8.5-8.5,8.5H281.6V324.3h145.1c4.7,0,8.5,3.8,8.5,8.5V486.4z"/>
		<path id="Shape_4_" d="M392.5,426.7h-68.3c-4.7,0-8.5,3.8-8.5,8.5s3.8,8.5,8.5,8.5h68.3c4.7,0,8.5-3.8,8.5-8.5
			S397.2,426.7,392.5,426.7z"/>
		<path id="Shape_5_" d="M375.5,460.8h-34.1c-4.7,0-8.5,3.8-8.5,8.5c0,4.7,3.8,8.5,8.5,8.5h34.1c4.7,0,8.5-3.8,8.5-8.5
			C384,464.6,380.2,460.8,375.5,460.8z"/>
	</g>
</g>
</svg>
