<?xml version="1.0" encoding="utf-8"?>
<!-- Generator: Adobe Illustrator 21.1.0, SVG Export Plug-In . SVG Version: 6.00 Build 0)  -->
<svg version="1.1" id="Layer_1" xmlns="http://www.w3.org/2000/svg" xmlns:xlink="http://www.w3.org/1999/xlink" x="0px" y="0px"
	 viewBox="0 0 512 512" style="enable-background:new 0 0 512 512;" xml:space="preserve">
<style type="text/css">
	.st0{fill:#FFFFFF;stroke:#000000;stroke-miterlimit:10;}
</style>
<polygon class="st0" points="455,343 489,354.5 502,386 496.5,423.5 478.5,442.5 46.9,446 17.5,433 8,390 27,347 101,343 "/>
<g id="Page-1">
	<g id="_x30_19---Student-With-Degree">
		<path id="Shape" d="M56.3,382.3c3.8-2.8,4.5-8.2,1.7-11.9s-8.2-4.5-11.9-1.7c-7.5,5.6-11.9,14.5-11.9,23.9s4.4,18.3,11.9,23.9
			c3.7,2.8,9,2.1,11.8-1.6c2.9-3.7,2.2-9-1.5-11.9c-3.3-2.4-5.2-6.2-5.2-10.3C51.2,388.6,53.1,384.7,56.3,382.3L56.3,382.3z"/>
		<path id="Shape_1_" d="M460.8,332.8h-16.9v-10.5c-0.2-17.8-14-32.5-31.8-33.8l-87.9-6.3v-44.4c0.2-0.2,0.4-0.4,0.6-0.7
			c13.6-12,20.8-29.7,19.5-47.8c10.7-6.9,18.4-17.6,21.4-30c2.3-15.2,2.6-34.3-9.3-38.6c-2.2-0.9-4.5-1.3-6.8-1.3
			c0.1-2.6,0.1-5.4,0.2-8.4l0-0.1V71.6l17.1-4.6v20.7v0.1c0,8.8,4.4,17,11.7,21.8c3.9,2.6,9.2,1.6,11.8-2.4
			c2.6-3.9,1.6-9.2-2.4-11.8c-2.5-1.7-4.1-4.5-4.1-7.6v-0.1v-26c6-3.4,9.3-10.2,8.4-17c-0.9-6.8-5.8-12.5-12.5-14.3l-111-29.8
			c-2.9-0.8-5.9-0.8-8.8,0l-111,29.8c-7.5,2-12.6,8.8-12.6,16.6s5.2,14.5,12.6,16.6l30,8.1v39.4v0.1c0,3,0.1,5.8,0.2,8.4
			c-2.3,0-4.5,0.4-6.6,1.2c-12.1,4.4-11.9,23.4-9.5,39c3.1,12.3,10.7,22.9,21.3,29.7c-1.3,18.1,5.9,35.7,19.5,47.8
			c0.2,0.2,0.4,0.5,0.6,0.7v44.4l-87.7,6.2c-17.8,1.3-31.6,16.2-31.7,34.1v10.3H51.2C23,332.8,0,359.6,0,392.5s23,59.7,51.2,59.7
			h162.1v42.7c0,9.4,7.6,17.1,17.1,17.1h34.1c9.4,0,17.1-7.6,17.1-17.1v-42.7h179.2c28.2,0,51.2-26.8,51.2-59.7
			S489,332.8,460.8,332.8L460.8,332.8z M426.8,322.4v10.4H285.2l33.8-33.9l91.9,6.6C419.8,306.1,426.7,313.5,426.8,322.4
			L426.8,322.4z M307.2,392.5c0,23.5-15.3,42.7-34.1,42.7h-15.4c20.6-24.7,20.6-60.6,0-85.3h15.4C291.9,349.9,307.2,369,307.2,392.5
			z M253.7,281.6h21.7c17.2,0,24.9-10.6,31.8-21.3v26.3l-42.6,42.7l-42.8-42.7v-26.3C228.8,271,236.5,281.6,253.7,281.6z M256,392.5
			c0,23.5-15.3,42.7-34.1,42.7H87c20.6-24.7,20.6-60.6,0-85.3h134.9C240.7,349.9,256,369,256,392.5z M264.5,17.1l111.1,29.9h-0.1
			L264.6,76.8l-111-29.9L264.5,17.1z M260.1,93.3c1.4,0.4,2.9,0.6,4.4,0.6c1.5,0,3-0.2,4.4-0.6l63.9-17.2v30.4
			c-6.6,4-26.1,12.9-68.2,12.9s-61.8-9-68.4-12.9V76.1L260.1,93.3z M201.8,186.9c0.9-3.7-0.8-7.6-4-9.6c-0.2-0.1-0.3-0.2-0.5-0.3
			c-8.3-4.1-14.5-11.4-17.2-20.2c-1.2-6.7-1.2-13.5-0.2-20.3c1.6,0.2,3.1,0.8,4.5,1.6c2.8,1.6,6.2,1.4,8.8-0.3
			c2.7-1.7,4.1-4.8,3.8-8c-0.1-1.3-0.2-2.6-0.3-4.1c21.7,7.9,44.8,11.6,67.9,10.7c23.1,0.9,46.1-2.7,67.7-10.7
			c-0.1,1.4-0.2,2.8-0.3,4.1c-0.2,3.1,1.2,6.1,3.9,7.8c2.6,1.7,6,1.8,8.7,0.3c1.4-0.8,2.9-1.4,4.5-1.6c1,6.6,1,13.3-0.1,19.9
			c-2.6,9-8.9,16.4-17.3,20.6c-0.2,0.1-0.5,0.2-0.7,0.4l-0.2,0.1c-3.5,2.1-5,6.4-3.6,10.2c1.7,14-3.6,27.9-14.3,37.2
			c-7.3,7.3-13.7,15.5-19,24.4c-7.3,11.3-10.2,15.2-18.6,15.2h-21.7c-8.4,0-11.4-3.9-18.6-15.2c-5.3-8.9-11.7-17.1-19.1-24.4
			C205.2,215.4,199.9,201.1,201.8,186.9L201.8,186.9z M102.4,322.5c0-8.9,6.9-16.3,15.8-17l91.8-6.6l34,33.9H102.4L102.4,322.5z
			 M17.1,392.5c0-23.5,15.3-42.7,34.1-42.7s34.1,19.1,34.1,42.7S70,435.2,51.2,435.2S17.1,416.1,17.1,392.5z M230.4,494.9v-42.7
			h34.1v42.7H230.4z M460.8,435.2h-152c20.6-24.7,20.6-60.6,0-85.3h152c18.8,0,34.1,19.1,34.1,42.7S479.6,435.2,460.8,435.2z"/>
	</g>
</g>
</svg>
